<?xml version="1.0" encoding="UTF-8"?>
<!DOCTYPE svg PUBLIC "-//W3C//DTD SVG 1.1//EN" "http://www.w3.org/Graphics/SVG/1.1/DTD/svg11.dtd">
<svg xmlns="http://www.w3.org/2000/svg" version="1.1" width="500px" height="500px" style="shape-rendering:geometricPrecision; text-rendering:geometricPrecision; image-rendering:optimizeQuality; fill-rule:evenodd; clip-rule:evenodd" xmlns:xlink="http://www.w3.org/1999/xlink">
<g><path style="opacity:1" fill="#fefeff" d="M -0.5,-0.5 C 166.167,-0.5 332.833,-0.5 499.5,-0.5C 499.5,166.167 499.5,332.833 499.5,499.5C 332.833,499.5 166.167,499.5 -0.5,499.5C -0.5,332.833 -0.5,166.167 -0.5,-0.5 Z"/></g>
<g><path style="opacity:1" fill="#8c52fe" d="M 242.5,78.5 C 325.09,74.1919 384.59,108.859 421,182.5C 444.281,244.931 436.281,302.931 397,356.5C 356.618,404.195 305.118,425.362 242.5,420C 170.654,408.34 122.821,368.173 99,299.5C 80.449,227.518 98.6156,166.685 153.5,117C 179.874,96.4351 209.541,83.6017 242.5,78.5 Z"/></g>
<g><path style="opacity:1" fill="#844eef" d="M 279.5,107.5 C 342.836,108.723 388.002,137.723 415,194.5C 435.701,251.638 426.034,302.971 386,348.5C 340.904,390.761 289.07,401.594 230.5,381C 173.643,354.971 144.31,310.637 142.5,248C 145.302,190.029 172.302,147.695 223.5,121C 241.531,113.324 260.198,108.824 279.5,107.5 Z"/></g>
<g><path style="opacity:1" fill="#7e4ce2" d="M 295.5,133.5 C 347.421,133.03 385.255,155.697 409,201.5C 425.975,243.795 421.308,283.462 395,320.5C 365.192,355.81 327.359,369.977 281.5,363C 232.769,351.269 202.269,321.102 190,272.5C 182.043,218.259 201.209,176.759 247.5,148C 262.685,140.043 278.685,135.21 295.5,133.5 Z"/></g>
<g><path style="opacity:1" fill="#7849d5" d="M 234.5,267.5 C 235.833,267.5 237.167,267.5 238.5,267.5C 238.5,266.5 238.5,265.5 238.5,264.5C 236.167,264.5 233.833,264.5 231.5,264.5C 231.5,260.167 231.5,255.833 231.5,251.5C 232.133,242.001 233.8,232.667 236.5,223.5C 250.739,182.615 279.572,161.281 323,159.5C 363.13,160.88 391.13,179.88 407,216.5C 420.168,257.671 410.668,292.504 378.5,321C 347.033,342.49 314.033,345.157 279.5,329C 255.109,315.389 240.109,294.889 234.5,267.5 Z"/></g>
<g><path style="opacity:1" fill="#7146c5" d="M 285.5,290.5 C 283.357,288.869 281.69,286.869 280.5,284.5C 283.04,282.334 282.373,281.334 278.5,281.5C 276.832,276.828 275.165,272.162 273.5,267.5C 275.048,267.179 275.715,266.179 275.5,264.5C 273.5,264.5 271.5,264.5 269.5,264.5C 269.5,263.167 269.5,261.833 269.5,260.5C 271.5,260.5 273.5,260.5 275.5,260.5C 275.5,259.5 275.5,258.5 275.5,257.5C 273.5,257.5 271.5,257.5 269.5,257.5C 269.5,256.5 269.5,255.5 269.5,254.5C 271.5,254.5 273.5,254.5 275.5,254.5C 275.5,253.5 275.5,252.5 275.5,251.5C 272.5,251.5 269.5,251.5 266.5,251.5C 267.919,250.549 269.585,250.216 271.5,250.5C 271.5,245.833 271.5,241.167 271.5,236.5C 272.404,237.209 272.737,238.209 272.5,239.5C 273.978,239.762 275.311,239.429 276.5,238.5C 275.355,235.058 274.021,231.725 272.5,228.5C 273.376,228.631 274.043,228.298 274.5,227.5C 288.295,194.764 312.962,179.598 348.5,182C 378.989,188.154 398.155,206.32 406,236.5C 409.731,279.759 390.564,306.593 348.5,317C 323.557,319.242 302.723,311.076 286,292.5C 285.536,291.906 285.369,291.239 285.5,290.5 Z"/></g>
<g><path style="opacity:1" fill="#f0ebfa" d="M 236.5,223.5 C 238.5,223.5 240.5,223.5 242.5,223.5C 243.933,235.994 246.1,236.327 249,224.5C 250.699,223.594 252.533,223.261 254.5,223.5C 254.5,228.833 254.5,234.167 254.5,239.5C 253.5,239.5 252.5,239.5 251.5,239.5C 251.666,235.486 251.499,231.486 251,227.5C 250.209,228.745 249.709,230.078 249.5,231.5C 248.226,233.993 247.56,236.659 247.5,239.5C 246.167,239.5 244.833,239.5 243.5,239.5C 243.037,236.779 242.371,234.112 241.5,231.5C 241.291,230.078 240.791,228.745 240,227.5C 239.501,231.486 239.334,235.486 239.5,239.5C 238.5,239.5 237.5,239.5 236.5,239.5C 236.5,234.167 236.5,228.833 236.5,223.5 Z"/></g>
<g><path style="opacity:1" fill="#f5f1fb" d="M 272.5,228.5 C 274.021,231.725 275.355,235.058 276.5,238.5C 275.311,239.429 273.978,239.762 272.5,239.5C 272.737,238.209 272.404,237.209 271.5,236.5C 270.726,235.853 269.726,235.52 268.5,235.5C 266.159,236.898 263.825,238.231 261.5,239.5C 262.69,234.429 264.19,229.429 266,224.5C 267.699,223.594 269.533,223.261 271.5,223.5C 271.629,225.216 271.962,226.883 272.5,228.5 Z"/></g>
<g><path style="opacity:1" fill="#f8f6fc" d="M 283.5,223.5 C 287.257,223.071 290.757,223.737 294,225.5C 294.778,228.275 294.278,230.775 292.5,233C 293.579,235.155 294.913,237.155 296.5,239C 292.801,239.823 290.467,238.323 289.5,234.5C 288.675,233.614 287.675,233.281 286.5,233.5C 286.5,235.5 286.5,237.5 286.5,239.5C 285.5,239.5 284.5,239.5 283.5,239.5C 283.5,234.167 283.5,228.833 283.5,223.5 Z"/></g>
<g><path style="opacity:1" fill="#f8f5fc" d="M 301.5,223.5 C 305.833,223.5 310.167,223.5 314.5,223.5C 314.5,224.5 314.5,225.5 314.5,226.5C 312.833,226.5 311.167,226.5 309.5,226.5C 309.5,230.833 309.5,235.167 309.5,239.5C 308.5,239.5 307.5,239.5 306.5,239.5C 306.5,235.167 306.5,230.833 306.5,226.5C 304.833,226.5 303.167,226.5 301.5,226.5C 301.5,225.5 301.5,224.5 301.5,223.5 Z"/></g>
<g><path style="opacity:1" fill="#fefeff" d="M 321.5,223.5 C 322.5,223.5 323.5,223.5 324.5,223.5C 324.5,228.833 324.5,234.167 324.5,239.5C 323.5,239.5 322.5,239.5 321.5,239.5C 321.5,234.167 321.5,228.833 321.5,223.5 Z"/></g>
<g><path style="opacity:1" fill="#f3effa" d="M 333.5,223.5 C 336.518,223.335 339.518,223.502 342.5,224C 345.053,226.945 345.053,229.945 342.5,233C 343.579,235.155 344.913,237.155 346.5,239C 345.167,239.667 343.833,239.667 342.5,239C 339.396,231.742 337.73,231.909 337.5,239.5C 336.167,239.5 334.833,239.5 333.5,239.5C 333.5,234.167 333.5,228.833 333.5,223.5 Z"/></g>
<g><path style="opacity:1" fill="#f0ebf9" d="M 353.5,223.5 C 356.833,223.5 360.167,223.5 363.5,223.5C 363.5,224.5 363.5,225.5 363.5,226.5C 361.5,226.5 359.5,226.5 357.5,226.5C 357.5,227.5 357.5,228.5 357.5,229.5C 359.167,229.5 360.833,229.5 362.5,229.5C 362.5,230.5 362.5,231.5 362.5,232.5C 360.833,232.5 359.167,232.5 357.5,232.5C 357.5,233.833 357.5,235.167 357.5,236.5C 359.5,236.5 361.5,236.5 363.5,236.5C 363.5,237.5 363.5,238.5 363.5,239.5C 360.167,239.5 356.833,239.5 353.5,239.5C 353.5,234.167 353.5,228.833 353.5,223.5 Z"/></g>
<g><path style="opacity:1" fill="#f4f1fa" d="M 372.5,223.5 C 382.432,223.727 382.766,225.06 373.5,227.5C 375.538,229.276 377.704,230.943 380,232.5C 380.896,235.025 380.396,237.192 378.5,239C 375.854,239.497 373.187,239.664 370.5,239.5C 370.343,238.127 370.51,236.793 371,235.5C 373.139,236.769 375.305,236.769 377.5,235.5C 375.428,233.384 373.262,231.384 371,229.5C 370.252,227.16 370.752,225.16 372.5,223.5 Z"/></g>
<g><path style="opacity:1" fill="#8760cd" d="M 286.5,226.5 C 288.665,226.116 290.332,226.783 291.5,228.5C 290.332,230.217 288.665,230.884 286.5,230.5C 286.5,229.167 286.5,227.833 286.5,226.5 Z"/></g>
<g><path style="opacity:1" fill="#764cc7" d="M 337.5,226.5 C 339.346,226.222 340.68,226.889 341.5,228.5C 340.68,230.111 339.346,230.778 337.5,230.5C 337.5,229.167 337.5,227.833 337.5,226.5 Z"/></g>
<g><path style="opacity:1" fill="#8a5fda" d="M 268.5,226.5 C 269.738,228.214 270.405,230.214 270.5,232.5C 269.5,232.5 268.5,232.5 267.5,232.5C 267.325,230.379 267.659,228.379 268.5,226.5 Z"/></g>
<g><path style="opacity:1" fill="#c1abec" d="M 241.5,231.5 C 240.833,234.167 240.167,236.833 239.5,239.5C 239.334,235.486 239.501,231.486 240,227.5C 240.791,228.745 241.291,230.078 241.5,231.5 Z"/></g>
<g><path style="opacity:1" fill="#b59ce8" d="M 251.5,239.5 C 250.833,236.833 250.167,234.167 249.5,231.5C 249.709,230.078 250.209,228.745 251,227.5C 251.499,231.486 251.666,235.486 251.5,239.5 Z"/></g>
<g><path style="opacity:1" fill="#f6f2fd" d="M 211.5,251.5 C 213.167,251.5 214.833,251.5 216.5,251.5C 217.866,256.573 219.532,261.573 221.5,266.5C 220.311,267.429 218.978,267.762 217.5,267.5C 217.845,264.512 216.512,263.179 213.5,263.5C 211.159,264.898 208.825,266.231 206.5,267.5C 207.768,262.03 209.435,256.696 211.5,251.5 Z"/></g>
<g><path style="opacity:1" fill="#fcfbfe" d="M 231.5,251.5 C 231.5,255.833 231.5,260.167 231.5,264.5C 233.833,264.5 236.167,264.5 238.5,264.5C 238.5,265.5 238.5,266.5 238.5,267.5C 237.167,267.5 235.833,267.5 234.5,267.5C 232.5,267.5 230.5,267.5 228.5,267.5C 228.5,262.167 228.5,256.833 228.5,251.5C 229.5,251.5 230.5,251.5 231.5,251.5 Z"/></g>
<g><path style="opacity:1" fill="#f3eefb" d="M 245.5,251.5 C 248.518,251.335 251.518,251.502 254.5,252C 258.037,253.826 258.371,256.16 255.5,259C 258.399,262.156 258.065,264.822 254.5,267C 251.518,267.498 248.518,267.665 245.5,267.5C 245.5,262.167 245.5,256.833 245.5,251.5 Z"/></g>
<g><path style="opacity:1" fill="#f8f6fc" d="M 266.5,251.5 C 269.5,251.5 272.5,251.5 275.5,251.5C 275.5,252.5 275.5,253.5 275.5,254.5C 273.5,254.5 271.5,254.5 269.5,254.5C 269.5,255.5 269.5,256.5 269.5,257.5C 271.5,257.5 273.5,257.5 275.5,257.5C 275.5,258.5 275.5,259.5 275.5,260.5C 273.5,260.5 271.5,260.5 269.5,260.5C 269.5,261.833 269.5,263.167 269.5,264.5C 271.5,264.5 273.5,264.5 275.5,264.5C 275.715,266.179 275.048,267.179 273.5,267.5C 271.167,267.5 268.833,267.5 266.5,267.5C 266.5,262.167 266.5,256.833 266.5,251.5 Z"/></g>
<g><path style="opacity:1" fill="#f3effa" d="M 283.5,251.5 C 286.518,251.335 289.518,251.502 292.5,252C 295.053,254.945 295.053,257.945 292.5,261C 293.579,263.155 294.913,265.155 296.5,267C 295.167,267.667 293.833,267.667 292.5,267C 289.396,259.742 287.73,259.909 287.5,267.5C 286.167,267.5 284.833,267.5 283.5,267.5C 283.5,262.167 283.5,256.833 283.5,251.5 Z"/></g>
<g><path style="opacity:1" fill="#f8f5fc" d="M 301.5,251.5 C 305.833,251.5 310.167,251.5 314.5,251.5C 314.5,252.5 314.5,253.5 314.5,254.5C 312.833,254.5 311.167,254.5 309.5,254.5C 309.5,258.833 309.5,263.167 309.5,267.5C 308.5,267.5 307.5,267.5 306.5,267.5C 306.5,263.167 306.5,258.833 306.5,254.5C 304.833,254.5 303.167,254.5 301.5,254.5C 301.5,253.5 301.5,252.5 301.5,251.5 Z"/></g>
<g><path style="opacity:1" fill="#f2eefa" d="M 324.5,251.5 C 333.108,250.276 336.941,253.943 336,262.5C 333.565,267.224 329.731,268.724 324.5,267C 319.221,261.836 319.221,256.669 324.5,251.5 Z"/></g>
<g><path style="opacity:1" fill="#f4f0fa" d="M 358.5,251.5 C 369.584,251.035 372.584,255.869 367.5,266C 359.814,269.659 355.481,267.326 354.5,259C 354.43,255.634 355.763,253.134 358.5,251.5 Z"/></g>
<g><path style="opacity:1" fill="#f3effa" d="M 381.5,251.5 C 384.5,251.5 387.5,251.5 390.5,251.5C 390.5,252.5 390.5,253.5 390.5,254.5C 383,253.166 380.167,256.166 382,263.5C 383.699,264.406 385.533,264.739 387.5,264.5C 387.5,263.5 387.5,262.5 387.5,261.5C 386.5,261.5 385.5,261.5 384.5,261.5C 384.5,260.5 384.5,259.5 384.5,258.5C 386.5,258.5 388.5,258.5 390.5,258.5C 390.5,261.5 390.5,264.5 390.5,267.5C 380.563,269.396 376.397,265.396 378,255.5C 379.376,254.295 380.542,252.962 381.5,251.5 Z"/></g>
<g><path style="opacity:1" fill="#784ad5" d="M 249.5,254.5 C 250.833,254.5 252.167,254.5 253.5,254.5C 253.5,255.5 253.5,256.5 253.5,257.5C 252.167,257.5 250.833,257.5 249.5,257.5C 249.5,256.5 249.5,255.5 249.5,254.5 Z"/></g>
<g><path style="opacity:1" fill="#764cc7" d="M 287.5,254.5 C 289.346,254.222 290.68,254.889 291.5,256.5C 290.68,258.111 289.346,258.778 287.5,258.5C 287.5,257.167 287.5,255.833 287.5,254.5 Z"/></g>
<g><path style="opacity:1" fill="#764bc7" d="M 325.5,254.5 C 329.815,253.683 332.149,255.349 332.5,259.5C 332.105,264.182 329.772,265.516 325.5,263.5C 324.175,260.469 324.175,257.469 325.5,254.5 Z"/></g>
<g><path style="opacity:1" fill="#774dc7" d="M 359.5,254.5 C 366.628,254.706 368.294,257.873 364.5,264C 362.559,264.743 360.726,264.576 359,263.5C 358.264,260.408 358.431,257.408 359.5,254.5 Z"/></g>
<g><path style="opacity:1" fill="#8f62e5" d="M 213.5,254.5 C 214.738,256.214 215.405,258.214 215.5,260.5C 214.5,260.5 213.5,260.5 212.5,260.5C 212.325,258.379 212.659,256.379 213.5,254.5 Z"/></g>
<g><path style="opacity:1" fill="#7c4fd6" d="M 249.5,260.5 C 251.665,260.116 253.332,260.783 254.5,262.5C 253.332,264.217 251.665,264.884 249.5,264.5C 249.5,263.167 249.5,261.833 249.5,260.5 Z"/></g>
<g><path style="opacity:1" fill="#e6dcf7" d="M 244.5,282.5 C 246.467,282.261 248.301,282.594 250,283.5C 250.847,286.49 249.68,287.824 246.5,287.5C 246.719,288.675 246.386,289.675 245.5,290.5C 244.52,287.914 244.187,285.247 244.5,282.5 Z"/></g>
<g><path style="opacity:1" fill="#ece5f9" d="M 266.5,281.5 C 271.296,280.849 272.962,282.682 271.5,287C 273.675,291.487 272.841,291.654 269,287.5C 268.751,288.624 268.251,289.624 267.5,290.5C 266.516,287.572 266.183,284.572 266.5,281.5 Z"/></g>
<g><path style="opacity:1" fill="#e6def5" d="M 306.5,281.5 C 311.443,281.288 312.11,282.288 308.5,284.5C 312.335,285.996 312.335,286.996 308.5,287.5C 308.719,288.675 308.386,289.675 307.5,290.5C 306.516,287.572 306.183,284.572 306.5,281.5 Z"/></g>
<g><path style="opacity:1" fill="#ac92dd" d="M 333.5,289.5 C 332.167,289.5 330.833,289.5 329.5,289.5C 329.663,287.143 329.497,284.81 329,282.5C 328.503,285.146 328.336,287.813 328.5,290.5C 327.523,287.713 327.19,284.713 327.5,281.5C 328.5,281.5 329.5,281.5 330.5,281.5C 330.5,283.833 330.5,286.167 330.5,288.5C 331.791,288.263 332.791,288.596 333.5,289.5 Z"/></g>
<g><path style="opacity:1" fill="#fdfcfe" d="M 333.5,289.5 C 332.081,290.451 330.415,290.784 328.5,290.5C 328.336,287.813 328.503,285.146 329,282.5C 329.497,284.81 329.663,287.143 329.5,289.5C 330.833,289.5 332.167,289.5 333.5,289.5 Z"/></g>
<g><path style="opacity:1" fill="#eae3f6" d="M 337.5,281.5 C 338.765,282.514 339.431,284.014 339.5,286C 339.167,287.5 338.833,289 338.5,290.5C 337.516,287.572 337.183,284.572 337.5,281.5 Z"/></g>
<g><path style="opacity:1" fill="#ad94dd" d="M 380.5,283.5 C 379.432,282.566 378.099,282.232 376.5,282.5C 376.5,285.167 376.5,287.833 376.5,290.5C 375.523,287.713 375.19,284.713 375.5,281.5C 377.604,281.201 379.604,281.534 381.5,282.5C 381.376,283.107 381.043,283.44 380.5,283.5 Z"/></g>
<g><path style="opacity:1" fill="#fefdfe" d="M 380.5,283.5 C 379.325,283.281 378.325,283.614 377.5,284.5C 378.602,285.176 379.602,285.842 380.5,286.5C 379.5,286.5 378.5,286.5 377.5,286.5C 377.5,287.5 377.5,288.5 377.5,289.5C 378.791,289.263 379.791,289.596 380.5,290.5C 379.167,290.5 377.833,290.5 376.5,290.5C 376.5,287.833 376.5,285.167 376.5,282.5C 378.099,282.232 379.432,282.566 380.5,283.5 Z"/></g>
<g><path style="opacity:1" fill="#ede7f9" d="M 278.5,281.5 C 282.373,281.334 283.04,282.334 280.5,284.5C 280.799,286.604 280.466,288.604 279.5,290.5C 278.922,287.631 277.922,284.965 276.5,282.5C 276.957,281.702 277.624,281.369 278.5,281.5 Z"/></g>
<g><path style="opacity:1" fill="#e9e0f8" d="M 256.5,281.5 C 262.643,282.026 263.976,284.86 260.5,290C 254.92,291.261 253.087,289.094 255,283.5C 255.717,282.956 256.217,282.289 256.5,281.5 Z"/></g>
<g><path style="opacity:1" fill="#8053d7" d="M 256.5,283.5 C 259.91,283.384 261.244,285.05 260.5,288.5C 259.167,288.5 257.833,288.5 256.5,288.5C 256.5,286.833 256.5,285.167 256.5,283.5 Z"/></g>
<g><path style="opacity:1" fill="#7f53d7" d="M 268.5,283.5 C 270.337,283.639 270.67,284.306 269.5,285.5C 268.702,285.043 268.369,284.376 268.5,283.5 Z"/></g>
<g><path style="opacity:1" fill="#eae3f6" d="M 317.5,281.5 C 323.263,281.783 324.93,284.616 322.5,290C 315.416,290.475 313.749,287.642 317.5,281.5 Z"/></g>
<g><path style="opacity:1" fill="#7950c8" d="M 318.5,283.5 C 319.5,283.5 320.5,283.5 321.5,283.5C 321.5,285.167 321.5,286.833 321.5,288.5C 320.167,288.5 318.833,288.5 317.5,288.5C 317.366,286.708 317.699,285.042 318.5,283.5 Z"/></g>
<g><path style="opacity:1" fill="#eae3f6" d="M 345.5,281.5 C 351.263,281.783 352.93,284.616 350.5,290C 343.416,290.475 341.749,287.642 345.5,281.5 Z"/></g>
<g><path style="opacity:1" fill="#7950c8" d="M 346.5,283.5 C 347.5,283.5 348.5,283.5 349.5,283.5C 349.5,285.167 349.5,286.833 349.5,288.5C 348.167,288.5 346.833,288.5 345.5,288.5C 345.366,286.708 345.699,285.042 346.5,283.5 Z"/></g>
<g><path style="opacity:1" fill="#e3d9f3" d="M 365.5,281.5 C 366.496,281.414 367.329,281.748 368,282.5C 368.333,283.833 368.667,285.167 369,286.5C 372.17,279.995 372.837,280.328 371,287.5C 370.751,288.624 370.251,289.624 369.5,290.5C 368.194,289.088 367.36,287.421 367,285.5C 366.846,288.525 365.346,290.191 362.5,290.5C 362.62,288.266 362.287,286.099 361.5,284C 361.833,283.5 362.167,283 362.5,282.5C 364.104,286.29 365.104,285.956 365.5,281.5 Z"/></g>
<g><path style="opacity:1" fill="#e4dbf4" d="M 285.5,290.5 C 286.23,288.955 287.563,288.122 289.5,288C 287.153,286.809 286.32,284.976 287,282.5C 288.635,281.151 290.135,281.318 291.5,283C 287.749,283.761 287.583,284.928 291,286.5C 291.667,287.5 291.667,288.5 291,289.5C 289.301,290.406 287.467,290.739 285.5,290.5 Z"/></g>
<g><path style="opacity:1" fill="#e7dff5" d="M 297.5,281.5 C 298.5,281.5 299.5,281.5 300.5,281.5C 300.855,284.067 301.521,286.567 302.5,289C 302.167,289.5 301.833,290 301.5,290.5C 300.784,289.689 299.95,289.022 299,288.5C 297.699,289.893 296.199,290.393 294.5,290C 295.798,287.273 296.798,284.44 297.5,281.5 Z"/></g>
<g><path style="opacity:1" fill="#f2eefa" d="M 385.5,281.5 C 387.199,281.34 388.866,281.506 390.5,282C 391.022,282.561 391.355,283.228 391.5,284C 391.026,285.704 390.859,287.538 391,289.5C 389.301,290.406 387.467,290.739 385.5,290.5C 385.5,287.5 385.5,284.5 385.5,281.5 Z"/></g>
<g><path style="opacity:1" fill="#8560cd" d="M 387.5,283.5 C 389.337,283.639 389.67,284.306 388.5,285.5C 387.702,285.043 387.369,284.376 387.5,283.5 Z"/></g>
<g><path style="opacity:1" fill="#af96de" d="M 380.5,286.5 C 380.082,287.222 379.416,287.722 378.5,288C 379.624,288.249 380.624,288.749 381.5,289.5C 381.376,290.107 381.043,290.44 380.5,290.5C 379.791,289.596 378.791,289.263 377.5,289.5C 377.5,288.5 377.5,287.5 377.5,286.5C 378.5,286.5 379.5,286.5 380.5,286.5 Z"/></g>
<g><path style="opacity:1" fill="#8159cb" d="M 387.5,286.5 C 389.337,286.639 389.67,287.306 388.5,288.5C 387.702,288.043 387.369,287.376 387.5,286.5 Z"/></g>
</svg>
